<svg height="933.333" viewBox="0 0 700 700" width="933.333" xmlns="http://www.w3.org/2000/svg"><path d="m341.5 38.9c-4.5 2.1-6.7 4.3-8.3 8.6-4.1 10.9 1 22.5 11 25.3 1.9.5 44.9.9 99.3.8 91.7-.1 96.2-.2 99.8-2 7.3-3.6 11.1-14.3 8-23.1-1.7-5-3.9-7.3-8.8-9.6-3.8-1.8-9-1.9-100.5-1.9s-96.7.1-100.5 1.9zm-106.2 72.2c-9.1 1.9-13.8 8-13.8 17.9 0 8 2.4 12.5 8.7 16l4.2 2.4h396.2l4.7-2.3c12-5.8 12.4-25.4.6-32.1l-4.4-2.4-196.7-.1c-108.2 0-197.9.3-199.5.6zm-57.3 74.1c-14.4 3.8-16.4 26.4-3 33.5l4.3 2.3h78.2c66.2 0 78.8-.2 81.7-1.5 13.4-5.5 14.4-25.5 1.8-32.9-3.4-2.1-4.7-2.1-81.5-2.2-45.3-.1-79.5.3-81.5.8zm350 0c-7 1.9-12 9.1-12 17.4 0 6.4 3.2 12.7 7.8 15.6l3.7 2.3 51 .3c44.9.2 51.5.1 55.2-1.3 14-5.4 14.8-26 1.3-33.6-2-1.1-11.7-1.4-53-1.5-28.5-.1-52 .3-54 .8zm-352.5 74.8c-13.8 6.9-12 30.1 2.6 33.8 2.6.7 28 1 72.2.9 77.5-.2 73.3.2 78.4-8.5 4.3-7.3 3.2-18.4-2.4-23.5-5.3-4.7-4.8-4.7-78-4.7-66.7 0-68.9.1-72.8 2zm100.2 71.7c-.1.1-1.6.3-3.2.5-16 1.8-19.9 25.7-5.4 33.8l4.4 2.4h106c99.1 0 106.2-.1 109.6-1.8 5.2-2.5 8-5.9 9.4-11.2 1.5-6.1.3-12.6-3.1-17.2-5.4-7 1.4-6.6-113.7-6.6-57.1-.1-103.9 0-104 .1zm103.5 74.9c-6.6 2.8-10.5 9.2-10.5 17 0 5.5 2 10.9 5 13.7 5.3 4.8 4.1 4.7 87 4.7 73.4 0 78-.1 81.8-1.9 4.8-2.2 6.7-4.3 8.7-9.6 3.2-8.5-.3-19.1-7.7-22.9-3.9-2.1-5-2.1-82.5-2.2-64.5-.1-79.1.1-81.8 1.2zm-330.8 73.5c-11.4 3.3-15.3 21.9-6.4 30.4 5.5 5.3 5 5.2 79.4 5.1l69.1-.1 4.2-2.8c11.3-7.7 10.1-26.3-2.1-31.8-3.9-1.8-7.9-1.9-72.6-1.8-37.8 0-69.9.5-71.6 1zm312.6.2c-6.6 3.1-9.9 7.7-10.7 14.8-1 9 3.5 16.7 11.2 19.3 5.4 1.9 155.6 1.9 161 0 14.1-4.8 15.8-26.1 2.5-33.1l-4.3-2.3-78.6.1c-57.7 0-79.3.4-81.1 1.2zm-291 72.9c-10.8 1.9-16.5 11.3-13.9 22.9 1.1 5 4.3 9 9.2 11.6 3 1.6 17.2 1.7 209.2 1.8 161.5.1 206.9-.2 210.4-1.1 7.8-2.3 12.1-8.4 12.1-17.4 0-8.2-3.8-14.4-10.5-17.1-2.3-.9-50.9-1.2-207.7-1.3-112.5 0-206.5.2-208.8.6zm89.1 74.3c-15.3 5.1-15.4 29.3-.2 34.4 2.5.8 35.1 1.1 117.8 1.1 123.1 0 117.8.2 123.4-5.1 6.3-6 6.6-19.3.6-25.7-5.6-6.1 2.7-5.7-123.2-5.8-84.1-.1-115.9.2-118.4 1.1z"/></svg>