<svg enable-background="new 0 0 35 35" viewBox="0 0 35 35" xmlns="http://www.w3.org/2000/svg" xmlns:xlink="http://www.w3.org/1999/xlink"><linearGradient id="a"><stop offset="0" stop-color="#9ccdff" stop-opacity=".5"/><stop offset="1" stop-color="#5ec1ff"/></linearGradient><linearGradient id="b" gradientUnits="userSpaceOnUse" x1="15.38" x2="28.264" xlink:href="#a" y1="2.078" y2="2.078"/><linearGradient id="c" gradientUnits="userSpaceOnUse" x1="11.921" x2="31.045" xlink:href="#a" y1="4.077" y2="4.077"/><linearGradient id="d" gradientUnits="userSpaceOnUse" x1="10.077" x2="32.077" xlink:href="#a" y1="6.077" y2="6.077"/><linearGradient id="e" gradientUnits="userSpaceOnUse" x1="9.17" x2="17.827" xlink:href="#a" y1="8.078" y2="8.078"/><linearGradient id="f" gradientUnits="userSpaceOnUse" x1="8.702" x2="16.248" xlink:href="#a" y1="10.078" y2="10.078"/><linearGradient id="g" gradientUnits="userSpaceOnUse" x1="8.545" x2="17.17" xlink:href="#a" y1="12.078" y2="12.078"/><linearGradient id="h" gradientUnits="userSpaceOnUse" x1="8.92" x2="21.264" xlink:href="#a" y1="14.078" y2="14.078"/><linearGradient id="i" gradientUnits="userSpaceOnUse" x1="10.077" x2="26.264" xlink:href="#a" y1="16.078" y2="16.078"/><linearGradient id="j" gradientUnits="userSpaceOnUse" x1="12.17" x2="28.264" xlink:href="#a" y1="18.078" y2="18.078"/><linearGradient id="k" gradientUnits="userSpaceOnUse" x1="17.17" x2="29.045" xlink:href="#a" y1="20.078" y2="20.078"/><linearGradient id="l" gradientUnits="userSpaceOnUse" x1="20.483" x2="29.764" xlink:href="#a" y1="22.078" y2="22.078"/><linearGradient id="m" gradientUnits="userSpaceOnUse" x1="21.174" x2="29.764" xlink:href="#a" y1="24.078" y2="24.078"/><linearGradient id="n" gradientUnits="userSpaceOnUse" x1="20.077" x2="28.764" xlink:href="#a" y1="26.078" y2="26.078"/><linearGradient id="o" gradientUnits="userSpaceOnUse" x1="5.412" x2="12.624" xlink:href="#a" y1="26.078" y2="26.078"/><linearGradient id="p" gradientUnits="userSpaceOnUse" x1="3.827" x2="27.858" xlink:href="#a" y1="28.078" y2="28.078"/><linearGradient id="q" gradientUnits="userSpaceOnUse" x1="6.317" x2="25.465" xlink:href="#a" y1="30.078" y2="30.078"/><linearGradient id="r" gradientUnits="userSpaceOnUse" x1="9.552" x2="20.764" xlink:href="#a" y1="32.078" y2="32.078"/><linearGradient id="s" gradientUnits="userSpaceOnUse" x1="24.421" x2="31.045" xlink:href="#a" y1="8.078" y2="8.078"/><path d="m27.7 2.6h-11.8c-.3 0-.5-.2-.5-.5s.2-.5.5-.5h11.8c.3 0 .5.2.5.5.1.3-.2.5-.5.5z" fill="url(#b)"/><path d="m30.5 4.6h-18c-.3 0-.5-.2-.5-.5s.2-.5.5-.5h18c.3 0 .5.2.5.5s-.2.5-.5.5z" fill="url(#c)"/><path d="m31.5 6.6h-20.9c-.3 0-.5-.2-.5-.5s.2-.5.5-.5h20.9c.3 0 .5.2.5.5.1.3-.2.5-.5.5z" fill="url(#d)"/><path d="m17.3 8.6h-7.6c-.3 0-.5-.2-.5-.5s.2-.5.5-.5h7.6c.3 0 .5.2.5.5s-.2.5-.5.5z" fill="url(#e)"/><path d="m15.7 10.6h-6.4c-.3 0-.5-.2-.5-.5s.2-.5.5-.5h6.4c.3 0 .6.2.6.5-.1.3-.3.5-.6.5z" fill="url(#f)"/><path d="m16.6 12.6h-7.5c-.3 0-.5-.2-.5-.5s.2-.5.5-.5h7.5c.3 0 .5.2.5.5.1.3-.2.5-.5.5z" fill="url(#g)"/><path d="m20.7 14.6h-11.2c-.3 0-.5-.2-.5-.5s.2-.5.5-.5h11.2c.3 0 .5.2.5.5.1.3-.2.5-.5.5z" fill="url(#h)"/><path d="m25.7 16.6h-15.1c-.3 0-.5-.2-.5-.5s.2-.5.5-.5h15.1c.3 0 .5.2.5.5.1.3-.2.5-.5.5z" fill="url(#i)"/><path d="m27.7 18.6h-15c-.3 0-.5-.2-.5-.5s.2-.5.5-.5h15c.3 0 .5.2.5.5.1.3-.2.5-.5.5z" fill="url(#j)"/><path d="m28.5 20.6h-10.8c-.3 0-.5-.2-.5-.5s.2-.5.5-.5h10.8c.3 0 .5.2.5.5s-.2.5-.5.5z" fill="url(#k)"/><path d="m29.2 22.6h-8.2c-.3 0-.5-.2-.5-.5s.2-.5.5-.5h8.2c.3 0 .5.2.5.5.1.3-.2.5-.5.5z" fill="url(#l)"/><path d="m29.2 24.6h-7.5c-.3 0-.5-.2-.5-.5s.2-.5.5-.5h7.5c.3 0 .5.2.5.5.1.3-.2.5-.5.5z" fill="url(#m)"/><path d="m28.2 26.6h-7.6c-.3 0-.5-.2-.5-.5s.2-.5.5-.5h7.6c.3 0 .5.2.5.5.1.3-.2.5-.5.5z" fill="url(#n)"/><path d="m12.1 26.6h-6.1c-.3 0-.5-.2-.5-.5s.2-.5.5-.5h6.1c.3 0 .5.2.5.5s-.2.5-.5.5z" fill="url(#o)"/><path d="m27.3 28.6h-22.9c-.3 0-.5-.2-.5-.5s.2-.5.5-.5h22.9c.3 0 .5.2.5.5.1.3-.2.5-.5.5z" fill="url(#p)"/><path d="m24.9 30.6h-18c-.3 0-.5-.2-.5-.5s.2-.5.5-.5h18c.3 0 .5.2.5.5.1.3-.2.5-.5.5z" fill="url(#q)"/><path d="m20.2 32.6h-10.1c-.3 0-.5-.2-.5-.5s.2-.6.5-.6h10.1c.3 0 .5.2.5.6.1.3-.2.5-.5.5z" fill="url(#r)"/><path d="m30.5 8.6h-5.5c-.3 0-.5-.2-.5-.5s.2-.5.5-.5h5.5c.3 0 .5.2.5.5s-.2.5-.5.5z" fill="url(#s)"/></svg>